<?xml version="1.0" encoding="UTF-8" standalone="no"?>
<!-- Created with Inkscape (http://www.inkscape.org/) -->

<svg
   width="38.982445mm"
   height="35.584785mm"
   viewBox="0 0 38.982445 35.584785"
   version="1.1"
   id="svg1"
   xml:space="preserve"
   sodipodi:docname="Movie Maker 2001 Alternative.svg"
   inkscape:version="1.3 (0e150ed6c4, 2023-07-21)"
   xmlns:inkscape="http://www.inkscape.org/namespaces/inkscape"
   xmlns:sodipodi="http://sodipodi.sourceforge.net/DTD/sodipodi-0.dtd"
   xmlns:xlink="http://www.w3.org/1999/xlink"
   xmlns="http://www.w3.org/2000/svg"
   xmlns:svg="http://www.w3.org/2000/svg"><sodipodi:namedview
     id="namedview1"
     pagecolor="#ffffff"
     bordercolor="#000000"
     borderopacity="0.25"
     inkscape:showpageshadow="2"
     inkscape:pageopacity="0.0"
     inkscape:pagecheckerboard="0"
     inkscape:deskcolor="#d1d1d1"
     inkscape:document-units="mm"
     inkscape:zoom="2"
     inkscape:cx="-11.5"
     inkscape:cy="166.25"
     inkscape:window-width="1920"
     inkscape:window-height="991"
     inkscape:window-x="-9"
     inkscape:window-y="-9"
     inkscape:window-maximized="1"
     inkscape:current-layer="layer1" /><defs
     id="defs1"><linearGradient
       id="linearGradient39"
       inkscape:collect="always"><stop
         style="stop-color:#a6aeae;stop-opacity:1"
         offset="0"
         id="stop39" /><stop
         style="stop-color:#1f2e39;stop-opacity:1"
         offset="1"
         id="stop40" /></linearGradient><linearGradient
       id="linearGradient37"
       inkscape:collect="always"><stop
         style="stop-color:#000000;stop-opacity:0.84723854;"
         offset="0"
         id="stop37" /><stop
         style="stop-color:#000000;stop-opacity:0.1880141;"
         offset="1"
         id="stop38" /></linearGradient><linearGradient
       id="linearGradient31"
       inkscape:collect="always"><stop
         style="stop-color:#b5bcc0;stop-opacity:1"
         offset="0"
         id="stop31" /><stop
         style="stop-color:#ffffff;stop-opacity:1;"
         offset="1"
         id="stop32" /></linearGradient><linearGradient
       id="linearGradient25"
       inkscape:collect="always"><stop
         style="stop-color:#f1fbff;stop-opacity:1;"
         offset="0"
         id="stop25" /><stop
         style="stop-color:#7f8a90;stop-opacity:1"
         offset="1"
         id="stop24" /></linearGradient><linearGradient
       id="linearGradient21"
       inkscape:collect="always"><stop
         style="stop-color:#21353f;stop-opacity:1"
         offset="0"
         id="stop21" /><stop
         style="stop-color:#afb6b9;stop-opacity:1"
         offset="1"
         id="stop22" /></linearGradient><linearGradient
       id="linearGradient17"
       inkscape:collect="always"><stop
         style="stop-color:#940002;stop-opacity:1"
         offset="0"
         id="stop17" /><stop
         style="stop-color:#ff2300;stop-opacity:1;"
         offset="0.34261131"
         id="stop19" /><stop
         style="stop-color:#e9cba0;stop-opacity:1"
         offset="1"
         id="stop18" /></linearGradient><linearGradient
       id="linearGradient15"
       inkscape:collect="always"><stop
         style="stop-color:#488d06;stop-opacity:1"
         offset="0"
         id="stop15" /><stop
         style="stop-color:#a0f61f;stop-opacity:1"
         offset="1"
         id="stop16" /></linearGradient><linearGradient
       id="linearGradient13"
       inkscape:collect="always"><stop
         style="stop-color:#f4ce15;stop-opacity:1"
         offset="0"
         id="stop13" /><stop
         style="stop-color:#fbe998;stop-opacity:1"
         offset="1"
         id="stop14" /></linearGradient><linearGradient
       id="linearGradient11"
       inkscape:collect="always"><stop
         style="stop-color:#003ae6;stop-opacity:1;"
         offset="0"
         id="stop11" /><stop
         style="stop-color:#5d82ea;stop-opacity:1"
         offset="1"
         id="stop12" /></linearGradient><linearGradient
       inkscape:collect="always"
       xlink:href="#linearGradient11"
       id="linearGradient12"
       x1="103.66837"
       y1="138.97758"
       x2="106.08135"
       y2="134.41029"
       gradientUnits="userSpaceOnUse" /><linearGradient
       inkscape:collect="always"
       xlink:href="#linearGradient13"
       id="linearGradient14"
       x1="105.80814"
       y1="142.43887"
       x2="109.78148"
       y2="140.77853"
       gradientUnits="userSpaceOnUse" /><linearGradient
       inkscape:collect="always"
       xlink:href="#linearGradient15"
       id="linearGradient16"
       x1="106.09554"
       y1="151.05605"
       x2="111.48962"
       y2="147.99422"
       gradientUnits="userSpaceOnUse" /><linearGradient
       inkscape:collect="always"
       xlink:href="#linearGradient17"
       id="linearGradient18"
       x1="109.71589"
       y1="160.58356"
       x2="120.72382"
       y2="155.08928"
       gradientUnits="userSpaceOnUse" /><linearGradient
       inkscape:collect="always"
       xlink:href="#linearGradient21"
       id="linearGradient22"
       x1="67.721588"
       y1="145.80472"
       x2="68.021545"
       y2="148.60757"
       gradientUnits="userSpaceOnUse"
       gradientTransform="matrix(0.99678493,0,0.1861993,1.0114742,0.30664022,-4.2789334)" /><linearGradient
       inkscape:collect="always"
       xlink:href="#linearGradient25"
       id="linearGradient24"
       x1="68.930031"
       y1="148.8358"
       x2="68.641769"
       y2="145.16826"
       gradientUnits="userSpaceOnUse"
       gradientTransform="matrix(1,0,0.18104499,0.98347482,0,0)" /><linearGradient
       inkscape:collect="always"
       xlink:href="#linearGradient31"
       id="linearGradient32"
       x1="60.127159"
       y1="158.24471"
       x2="71.840919"
       y2="140.73297"
       gradientUnits="userSpaceOnUse" /><linearGradient
       inkscape:collect="always"
       xlink:href="#linearGradient31"
       id="linearGradient36"
       x1="80.747032"
       y1="153.66612"
       x2="92.042015"
       y2="135.45029"
       gradientUnits="userSpaceOnUse" /><linearGradient
       inkscape:collect="always"
       xlink:href="#linearGradient37"
       id="linearGradient38"
       x1="102.83524"
       y1="132.61797"
       x2="107.30219"
       y2="138.92046"
       gradientUnits="userSpaceOnUse" /><linearGradient
       inkscape:collect="always"
       xlink:href="#linearGradient39"
       id="linearGradient40"
       x1="110.04538"
       y1="141.17171"
       x2="117.77019"
       y2="159.82753"
       gradientUnits="userSpaceOnUse" /><filter
       inkscape:collect="always"
       style="color-interpolation-filters:sRGB"
       id="filter57"
       x="-0.045939949"
       y="-0.050253482"
       width="1.0918799"
       height="1.100507"><feGaussianBlur
         inkscape:collect="always"
         stdDeviation="0.67705886"
         id="feGaussianBlur57" /></filter></defs><g
     inkscape:label="Katman 1"
     inkscape:groupmode="layer"
     id="layer1"
     transform="translate(-87.375125,-129.01226)"
     style="display:inline"><path
       id="path40"
       style="display:inline;mix-blend-mode:normal;fill:#000000;fill-opacity:0.75;stroke:none;stroke-width:0.999998;stroke-dasharray:none;stroke-opacity:1;paint-order:markers stroke fill;filter:url(#filter57)"
       d="m 105.40308,130.6372 a 13.050219,8.1837864 76.972966 0 0 -5.521107,4.13566 c -1.428134,-1.0241 -2.941528,-1.60816 -4.418333,-1.60816 -4.663136,-1.6e-4 -7.192438,5.81014 -5.649268,12.9775 1.542995,7.16722 6.574019,12.97748 11.237038,12.9775 1.99718,6e-5 3.60176,-1.06771 4.6638,-2.84943 0.044,0.0661 0.0869,0.12722 0.13074,0.19274 0.22363,0.33596 0.44507,0.66397 0.66301,0.97979 0.11325,0.16411 0.21625,0.32964 0.31678,0.49506 0.0673,0.1115 0.13376,0.22335 0.19792,0.33434 l 10e-4,0.002 c 0.27956,0.48369 0.53387,0.95543 0.82424,1.36323 1.50305,2.11078 2.87734,3.33467 2.87734,3.33467 10.36823,-0.14334 14.00639,-7.50083 14.00639,-7.50083 0,0 -5.52961,-0.20565 -9.38703,-5.99602 a 13.050219,8.1837864 76.972966 0 0 0.13643,-5.98981 13.050219,8.1837864 76.972966 0 0 -10.07898,-12.8478 z m -0.34003,0.62838 a 12.708702,7.7036741 77.984204 0 0 -1.00562,0.10749 12.708702,7.7036741 77.984204 0 1 1.00562,-0.10749 z m 1.03405,0.10749 a 12.708702,7.7036741 77.984204 0 1 2.08152,0.84646 12.708702,7.7036741 77.984204 0 0 -2.08152,-0.84646 z m -10.725962,2.36265 c 0.179631,0 0.360009,0.0118 0.540536,0.0295 l 0.0015,0.0238 a 12.970826,7.8399453 70.463822 0 0 -0.542086,-0.0532 z m 0,0 a 12.970826,7.8399453 70.463822 0 0 -1.037146,0.10697 c 0.332141,-0.0695 0.67773,-0.10695 1.037146,-0.10697 z m 0.827857,0.0625 c 0.02823,0.004 0.05651,0.01 0.08475,0.0145 -0.02821,-0.005 -0.0566,-0.0103 -0.08475,-0.0145 z m -1.86862,0.045 a 12.970826,7.8399453 70.463822 0 0 -2.66547,1.56734 12.970826,7.8399453 70.463822 0 0 -0.675928,0.8909 c 0.206119,-0.32423 0.431664,-0.62221 0.675928,-0.8909 0.731926,-0.80512 1.62976,-1.34987 2.66547,-1.56734 z m 15.831075,0.0124 a 12.708702,7.7036741 77.984204 0 1 1.74821,2.31356 12.708702,7.7036741 77.984204 0 0 -1.74821,-2.31356 z m -13.611055,0.007 c 0.05839,0.0122 0.116791,0.0249 0.175182,0.0388 -0.05851,-0.014 -0.116856,-0.0265 -0.175182,-0.0388 z m 0.340547,0.0816 c 0.123233,0.0327 0.246421,0.0693 0.369486,0.10955 -0.123469,-0.0406 -0.246649,-0.0767 -0.369486,-0.10955 z m 0.469739,0.14263 c 0.06917,0.0238 0.138152,0.0483 0.207222,0.0744 0.01568,0.006 0.03136,0.0126 0.04703,0.0186 -0.0121,-0.005 -0.02408,-0.009 -0.03617,-0.0134 a 12.970826,7.8399453 70.463822 0 0 -0.01085,-0.005 12.970826,7.8399453 70.463822 0 0 -0.01447,-0.004 c -0.06429,-0.0242 -0.128593,-0.0481 -0.192753,-0.0703 z m 0.275435,0.10129 c 0.187675,0.0729 0.374724,0.15385 0.561206,0.24339 0.09239,0.0444 0.184469,0.0907 0.276469,0.13901 -0.09201,-0.0482 -0.184176,-0.0948 -0.276469,-0.13901 -0.187412,-0.0898 -0.374429,-0.17064 -0.561206,-0.24339 z m 0.896071,0.41341 c 0.183194,0.098 0.365537,0.20304 0.546735,0.31625 0.07568,0.0473 0.151073,0.0964 0.226343,0.14625 -0.07531,-0.0498 -0.150689,-0.099 -0.226343,-0.14625 -0.126671,-0.079 -0.253885,-0.15326 -0.381372,-0.22479 a 12.970826,7.8399453 70.463822 0 0 -0.01964,-0.0109 c -0.04856,-0.0271 -0.09707,-0.0546 -0.145726,-0.0806 z m 0.908987,0.55397 c 0.06846,0.0469 0.136575,0.0941 0.204639,0.14314 -0.06811,-0.049 -0.136198,-0.0963 -0.204639,-0.14314 z m -8.475451,1.18184 a 12.970826,7.8399453 70.463822 0 0 -0.553972,1.05316 c 0.164136,-0.37615 0.349541,-0.7273 0.553972,-1.05316 z m -0.561207,1.0697 a 12.970826,7.8399453 70.463822 0 0 -0.39274,1.10433 c 0.114584,-0.38529 0.242263,-0.75755 0.39274,-1.10433 z m -0.450101,1.29553 a 12.970826,7.8399453 70.463822 0 0 -0.263033,1.19992 c 0.06994,-0.41579 0.156828,-0.81679 0.263033,-1.19992 z m -0.293005,1.39268 a 12.970826,7.8399453 70.463822 0 0 -0.143144,1.35082 c 0.02564,-0.46655 0.07652,-0.91483 0.143144,-1.35082 z m -0.143661,1.37976 a 12.970826,7.8399453 70.463822 0 0 -0.0078,1.43402 c -0.0075,-0.20932 -0.01734,-0.42 -0.01705,-0.62477 3.82e-4,-0.27467 0.0107,-0.54343 0.02481,-0.80925 z m -0.0036,1.57819 a 12.970826,7.8399453 70.463822 0 0 0.122472,1.43454 c -0.0605,-0.48775 -0.101739,-0.96653 -0.122472,-1.43454 z m 25.106481,1.52498 a 12.708702,7.7036741 77.984204 0 1 0.03,0.3328 12.708702,7.7036741 77.984204 0 0 -0.03,-0.3328 z m -24.945785,0.18837 a 12.970826,7.8399453 70.463822 0 0 0.254248,1.47123 12.970826,7.8399453 70.463822 0 0 0.40721,1.58026 c -0.154036,-0.51791 -0.291886,-1.04461 -0.40721,-1.58026 -0.10738,-0.49876 -0.187104,-0.98773 -0.254248,-1.47123 z m 24.986585,0.31212 a 12.708702,7.7036741 77.984204 0 1 0.0233,0.37673 12.708702,7.7036741 77.984204 0 0 -0.0233,-0.37673 z m 0.0357,0.71882 a 12.708702,7.7036741 77.984204 0 1 0.006,0.18346 12.708702,7.7036741 77.984204 0 0 -0.006,-0.18346 z m 0.01,0.5178 a 12.708702,7.7036741 77.984204 0 1 10e-4,0.22377 12.708702,7.7036741 77.984204 0 0 -10e-4,-0.22377 z m -0.005,0.50385 a 12.708702,7.7036741 77.984204 0 1 -0.006,0.2558 12.708702,7.7036741 77.984204 0 0 0.006,-0.2558 z m -0.0196,0.53485 a 12.708702,7.7036741 77.984204 0 1 -0.0139,0.25218 12.708702,7.7036741 77.984204 0 0 0.0139,-0.25218 z m -0.0351,0.52452 a 12.708702,7.7036741 77.984204 0 1 -0.0217,0.25114 12.708702,7.7036741 77.984204 0 0 0.0217,-0.25114 z m -24.282239,0.0367 a 12.970826,7.8399453 70.463822 0 0 0.537436,1.55857 12.970826,7.8399453 70.463822 0 0 1.454693,3.00137 c -0.550261,-0.93156 -1.040896,-1.9382 -1.454693,-3.00137 -0.197529,-0.50752 -0.376821,-1.02778 -0.537436,-1.55857 z m 2.007114,4.58526 a 12.970826,7.8399453 70.463822 0 0 0.485759,0.74827 l -0.0088,0.0176 c 0.112972,0.17191 0.228052,0.33982 0.34468,0.50487 -0.116818,-0.16514 -0.231821,-0.33346 -0.34468,-0.50487 -0.163736,-0.24868 -0.322222,-0.50476 -0.476974,-0.76584 z m 0.927075,1.41541 c 0.08345,0.11559 0.167041,0.23059 0.252181,0.34262 -0.08526,-0.11217 -0.168757,-0.22715 -0.252181,-0.34262 z m 0.394808,0.52555 c 0.0744,0.0952 0.149228,0.18974 0.224793,0.28216 -0.07564,-0.0926 -0.150419,-0.18703 -0.224793,-0.28216 z m 0.371037,0.45785 c 0.03386,0.0402 0.06824,0.0792 0.10232,0.11886 a 12.970826,7.8399453 70.463822 0 0 0.04703,0.0599 12.970826,7.8399453 70.463822 0 0 0.04341,0.0455 c 0.02009,0.023 0.03978,0.047 0.05994,0.0698 -0.0343,-0.0388 -0.06928,-0.0759 -0.103353,-0.11524 -0.05039,-0.0582 -0.09947,-0.11949 -0.149345,-0.17881 z m 0.367936,0.42272 c 0.09807,0.10836 0.197029,0.21506 0.296623,0.31885 -0.09972,-0.10414 -0.198595,-0.21035 -0.296623,-0.31885 z m 0.384989,0.40979 c 0.113105,0.11581 0.226734,0.2292 0.341582,0.339 -0.114911,-0.11015 -0.228629,-0.22308 -0.341582,-0.339 z m 10.56163,0.0305 c -0.0352,0.0641 -0.0709,0.12786 -0.10749,0.19018 a 12.970826,7.8399453 70.463822 0 0 0.10749,-0.19018 z m -10.178707,0.34778 c 0.0034,0.003 0.0069,0.006 0.01033,0.009 a 12.970826,7.8399453 70.463822 0 0 0.0067,0.007 c -0.0057,-0.005 -0.01132,-0.0111 -0.01705,-0.0165 z m 9.969417,0.009 c -0.0427,0.0686 -0.0858,0.13683 -0.13022,0.20309 a 12.970826,7.8399453 70.463822 0 0 0.13022,-0.20309 z m -9.900688,0.0568 a 12.970826,7.8399453 70.463822 0 0 0.04599,0.0387 c 0.302489,0.28018 0.610116,0.53869 0.921907,0.77566 a 12.970826,7.8399453 70.463822 0 0 0.0708,0.0594 c -0.352809,-0.2645 -0.699604,-0.55598 -1.038697,-0.87385 z m 9.696568,0.25217 c -0.0544,0.0778 -0.10911,0.15513 -0.16588,0.22944 a 12.970826,7.8399453 70.463822 0 0 0.16588,-0.22944 z m -0.21808,0.29508 c -0.54125,0.68959 -1.18812,1.22219 -1.92701,1.56631 -0.10036,0.0467 -0.20274,0.0895 -0.30644,0.12919 a 12.970826,7.8399453 70.463822 0 0 0.30644,-0.12919 12.970826,7.8399453 70.463822 0 0 1.92701,-1.56631 z m -8.401033,0.35553 a 12.970826,7.8399453 70.463822 0 0 0.04961,0.0326 c 0.328383,0.2406 0.660178,0.45802 0.994771,0.64802 a 12.970826,7.8399453 70.463822 0 0 0.09405,0.0522 c 0.342895,0.1895 0.688216,0.35137 1.033529,0.48473 a 12.970826,7.8399453 70.463822 0 0 0.07545,0.0289 c 0.222493,0.0832 0.445051,0.15408 0.667143,0.2129 -0.987162,-0.2577 -1.971167,-0.75843 -2.914551,-1.45934 z m 6.133993,1.35289 c -0.0923,0.0345 -0.18576,0.0663 -0.28061,0.0951 a 12.970826,7.8399453 70.463822 0 0 0.28061,-0.0951 z m -0.37052,0.12092 c -0.0802,0.0227 -0.16089,0.044 -0.24288,0.0625 a 12.970826,7.8399453 70.463822 0 0 0.24288,-0.0625 z m -2.737819,0.0145 c 0.0594,0.0146 0.118973,0.0285 0.178284,0.0413 -0.05943,-0.0126 -0.118859,-0.0269 -0.178284,-0.0413 z m 0.189136,0.0351 a 12.970826,7.8399453 70.463822 0 0 0.08268,0.0238 c -0.02686,-0.005 -0.05375,-0.009 -0.08061,-0.015 z m 0.135393,0.0336 a 12.970826,7.8399453 70.463822 0 0 1.05678,0.10437 c -0.3507,-2e-5 -0.70353,-0.0382 -1.05678,-0.10437 z m 2.02055,0.01 c -0.0675,0.0131 -0.13494,0.0264 -0.20361,0.0367 a 12.970826,7.8399453 70.463822 0 0 0.20361,-0.0367 z m -0.41496,0.0625 c -0.0544,0.006 -0.10819,0.013 -0.1633,0.0171 a 12.970826,7.8399453 70.463822 0 0 0.1633,-0.0171 z" /><path
       id="ellipse34"
       style="display:inline;fill:#bbc1c5;fill-opacity:1;stroke:#000000;stroke-width:1.00469;stroke-dasharray:none;stroke-opacity:1;paint-order:markers stroke fill"
       d="m 86.127808,130.73502 a 8.3129282,12.968338 0 0 0 -8.313276,12.96865 8.3129282,12.968338 0 0 0 0.01247,0.30306 7.8113342,12.651446 0.46365244 0 1 7.874386,-12.63742 7.8113342,12.651446 0.46365244 0 1 7.748065,12.65151 7.8113342,12.651446 0.46365244 0 1 -7.485353,12.63429 8.3129282,12.968338 0 0 0 0.163607,0.0167 8.3129282,12.968338 0 0 0 8.312689,-12.96813 8.3129282,12.968338 0 0 0 -8.312583,-12.96865 z"
       transform="matrix(1,0,0.1362045,0.99068074,0,0)" /><ellipse
       style="display:inline;fill:url(#linearGradient36);stroke:none;stroke-width:0.102135;stroke-dasharray:none;stroke-opacity:1;paint-order:markers stroke fill"
       id="ellipse20"
       transform="matrix(1,0,0.13128507,0.99134466,0,0)"
       ry="12.642717"
       rx="7.8114924"
       cy="143.92415"
       cx="86.359177" /><path
       style="display:inline;fill:url(#linearGradient40);stroke:none;stroke-width:0.1;stroke-dasharray:none;paint-order:markers stroke fill"
       d="m 99.90965,134.16329 c 1.72306,-2.3312 8.28221,-3.66983 11.41105,8.00716 0.55886,2.0857 1.20355,3.93435 2.04257,5.36786 3.85827,6.59213 9.90061,6.81182 9.90061,6.81182 0,0 -3.63804,7.35789 -14.00628,7.50123 0,0 -1.37413,-1.22414 -2.87718,-3.33493 -0.45614,-0.64058 -0.81589,-1.43454 -1.34015,-2.19425 -4.46465,-6.46977 -10.385572,-16.90394 -5.13062,-22.15889 z"
       id="path37"
       sodipodi:nodetypes="cssccssc" /><path
       id="path3"
       style="display:inline;fill:url(#linearGradient38);stroke:none;stroke-width:0.1;stroke-dasharray:none;paint-order:markers stroke fill"
       d="m 103.45236,132.59348 c -1.57037,-0.039 -2.89678,0.69573 -3.542932,1.56993 l 3.918112,5.42034 c 1.32258,0.35439 5.95977,-1.59264 5.98568,-1.60352 -1.90288,-3.98942 -4.33435,-5.33644 -6.36086,-5.38675 z" /><path
       id="path4"
       style="display:inline;fill:url(#linearGradient12);stroke:none;stroke-width:0.1;stroke-dasharray:none;stroke-opacity:1;paint-order:markers stroke fill"
       d="m 103.19192,133.41823 c -1.23847,-0.0215 -2.50248,0.54395 -3.282492,1.32396 l 0.573092,5.10097 3.18585,-0.86558 c 2.66905,-0.27028 4.45451,-1.76836 4.45451,-1.76836 -0.23125,-0.88359 -0.90883,-1.80754 -1.57251,-2.41691 -0.96973,-0.89037 -2.24674,-1.35866 -3.35845,-1.37408 z"
       sodipodi:nodetypes="cccccsc" /><path
       style="display:inline;fill:url(#linearGradient14);stroke:none;stroke-width:0.1;stroke-dasharray:none;stroke-opacity:1;paint-order:markers stroke fill"
       d="m 110.56985,143.65702 c -0.76775,-4.67944 -2.00267,-5.8449 -2.00267,-5.8449 0,0 -2.22983,1.43589 -4.72996,1.97645 l 2.17916,5.96314 c 0,0 2.6829,-0.22412 4.55347,-2.09469 z"
       id="path5"
       sodipodi:nodetypes="ccccc" /><path
       style="display:inline;fill:url(#linearGradient16);stroke:none;stroke-width:0.1;stroke-dasharray:none;stroke-opacity:1;paint-order:markers stroke fill"
       d="m 114.19247,150.2114 c -2.14538,-2.14538 -3.30253,-5.56616 -3.30253,-5.56616 0,0 -2.32276,1.59637 -4.68774,2.08626 0,0 0.43921,4.25697 -0.96289,7.71998 0,0 4.88201,-0.16893 8.95316,-4.24008 z"
       id="path8"
       sodipodi:nodetypes="cc" /><path
       style="display:inline;fill:url(#linearGradient18);stroke:none;stroke-width:0.1;stroke-dasharray:none;stroke-opacity:1;paint-order:markers stroke fill"
       d="m 121.48025,154.85571 c -4.72587,6.41246 -11.76436,5.72784 -11.76436,5.72784 l -3.62035,-4.82963 c 0,0 5.31832,-1.30244 8.90779,-4.69788 0,0 2.64462,2.77281 6.47692,3.79967 z"
       id="path11"
       sodipodi:nodetypes="ccccc" /><path
       id="path1"
       style="display:inline;fill:#3a3a3a;fill-opacity:0.545847;stroke:none;stroke-width:0.1;stroke-dasharray:none;paint-order:markers stroke fill"
       d="m 100.85356,133.30506 c -0.20122,0.12895 -0.38575,0.2692 -0.54777,0.41961 -0.0131,0.0127 -0.0251,0.0232 -0.0382,0.0362 -0.13492,0.12907 -0.25567,0.26394 -0.358122,0.40256 -0.204108,0.20411 -0.385427,0.41849 -0.556555,0.63768 l 4.381647,19.56263 c 0.44094,0.68058 0.88044,1.34205 1.30586,1.95854 0.19015,0.27555 0.35538,0.5538 0.5147,0.82941 l 0.016,0.0243 c 0,0 3.85757,-4.93741 1.99936,-13.01213 -1.85542,-8.06266 -6.70241,-10.85045 -6.7169,-10.85877 z" /><path
       id="ellipse32"
       style="display:inline;fill:#bbc1c5;fill-opacity:1;stroke:#000000;stroke-width:1.01139;stroke-dasharray:none;stroke-opacity:1;paint-order:markers stroke fill"
       d="m 65.566617,135.06974 c -4.663106,-1.6e-4 -8.443333,5.94328 -8.443259,13.27487 -7.1e-5,7.33145 3.780028,13.27484 8.44305,13.27486 3.582564,1.2e-4 6.644006,-3.50798 7.870412,-8.4585 0.369897,-1.49313 0.572862,-3.11748 0.572846,-4.81636 7.4e-5,-7.33146 -3.780025,-13.27485 -8.443049,-13.27487 z m -0.215439,0.58411 c 4.492292,-1.5e-4 8.134063,5.72553 8.134061,12.78855 -1e-6,7.0631 -3.641854,12.7888 -8.134197,12.78854 -4.492088,-3e-4 -8.133542,-5.72584 -8.133544,-12.78854 0,-1.41318 0.14579,-2.77283 0.415013,-4.04379 1.076299,-5.08103 4.12535,-8.74462 7.718667,-8.74476 z"
       transform="matrix(1,0,0.21047233,0.97759982,0,0)"
       sodipodi:nodetypes="cccscccscssc" /><ellipse
       style="display:inline;fill:url(#linearGradient32);stroke:none;stroke-width:0.418339;stroke-dasharray:none;stroke-opacity:1;paint-order:markers stroke fill"
       id="path31"
       cx="65.351166"
       cy="148.44237"
       rx="8.133893"
       ry="12.788544"
       transform="matrix(1,0,0.21047233,0.97759982,0,0)" /><path
       id="path27"
       style="display:inline;fill:#c2c7ca;fill-opacity:1;stroke:none;stroke-width:0.4;stroke-dasharray:none;stroke-opacity:1;paint-order:markers stroke fill"
       d="m 94.443315,132.64222 0.600261,10.12686 c 0.195797,0 0.387048,0.0646 0.563273,0.17209 l 1.121981,-9.6299 c -0.771136,-0.36962 -1.539144,-0.59594 -2.285515,-0.66905 z"
       sodipodi:nodetypes="ccccc" /><path
       id="path28"
       style="display:inline;fill:#8a949a;fill-opacity:1;stroke:none;stroke-width:0.4;stroke-dasharray:none;stroke-opacity:1;paint-order:markers stroke fill"
       d="m 96.72883,133.31127 -1.121981,9.6299 c 0.166884,0.10177 0.320278,0.24177 0.450618,0.40204 l 5.119103,-6.15428 c -1.332478,-1.77702 -2.871809,-3.1224 -4.44774,-3.87766 z"
       sodipodi:nodetypes="ccccc" /><path
       id="path27-4"
       style="display:inline;fill:#ffffff;fill-opacity:1;stroke:none;stroke-width:0.407656;stroke-dasharray:none;stroke-opacity:1;paint-order:markers stroke fill"
       d="m 94.588823,145.77975 -3.208076,6.36594 c 1.905469,2.89956 4.349162,4.83808 6.714755,5.34522 l -2.387884,-11.11429 c -0.339521,0 -0.665762,-0.19448 -0.922425,-0.46974 z"
       sodipodi:nodetypes="cccccc" /><path
       style="color:#000000;fill:url(#linearGradient24);stroke:#000000;stroke-width:0.4;stroke-dasharray:none;paint-order:markers stroke fill"
       d="m 95.043653,142.76904 c -0.381219,0 -0.655818,0.24482 -0.802477,0.57433 -0.146658,0.32953 -0.184552,0.7587 -0.09791,1.22935 0.08664,0.47065 0.282547,0.89983 0.550525,1.22934 0.267979,0.32952 0.632712,0.57434 1.013931,0.57434 0.381218,0 0.655818,-0.24482 0.802475,-0.57434 0.146659,-0.32951 0.184553,-0.75869 0.09791,-1.22934 -0.08664,-0.47065 -0.282547,-0.89982 -0.550526,-1.22935 -0.267977,-0.32951 -0.632711,-0.57433 -1.013929,-0.57433 z m 0.09264,0.50327 c 0.158158,0 0.347221,0.10192 0.536135,0.33422 0.188915,0.2323 0.352779,0.57953 0.423957,0.96619 0.07118,0.38666 0.03516,0.73388 -0.06823,0.96618 -0.103388,0.23231 -0.254923,0.33424 -0.413081,0.33424 -0.158159,0 -0.345269,-0.10193 -0.534185,-0.33424 -0.188914,-0.2323 -0.354729,-0.57952 -0.425908,-0.96618 -0.07118,-0.38666 -0.0332,-0.73389 0.07018,-0.96619 0.10339,-0.2323 0.252972,-0.33422 0.411131,-0.33422 z"
       id="path25" /><path
       style="color:#000000;fill:url(#linearGradient22);stroke-width:0.991703;-inkscape-stroke:none;paint-order:markers stroke fill"
       d="m 96.352619,144.57279 a 1.5938553,0.9511651 73.576826 0 1 -0.690871,1.5523 1.5938553,0.9511651 73.576826 0 1 -1.262388,-1.5523 1.5938553,0.9511651 73.576826 0 1 0.690872,-1.55229 1.5938553,0.9511651 73.576826 0 1 1.262387,1.55229 z"
       id="path26" /><ellipse
       style="fill:#132833;fill-opacity:1;stroke:none;stroke-width:0.582365;stroke-dasharray:none;stroke-opacity:1;paint-order:markers stroke fill"
       id="path30"
       cx="76.091003"
       cy="139.07784"
       rx="2.0307217"
       ry="2.8952591"
       transform="matrix(1,0,0.13987679,0.99016892,0,0)" /><ellipse
       style="fill:#132833;fill-opacity:1;stroke:none;stroke-width:0.54612;stroke-dasharray:none;stroke-opacity:1;paint-order:markers stroke fill"
       id="ellipse30"
       cx="71.139694"
       cy="142.31279"
       rx="1.8315785"
       ry="2.8229158"
       transform="matrix(1,0,0.13997144,0.99015554,0,0)" /><ellipse
       style="fill:#132833;fill-opacity:1;stroke:none;stroke-width:0.549707;stroke-dasharray:none;stroke-opacity:1;paint-order:markers stroke fill"
       id="ellipse31"
       cx="60.380619"
       cy="152.5685"
       rx="1.8315785"
       ry="2.8601243"
       transform="matrix(1,0,0.21197924,0.97727417,0,0)" /><ellipse
       style="display:inline;fill:#132833;fill-opacity:1;stroke:none;stroke-width:0.637433;stroke-dasharray:none;stroke-opacity:1;paint-order:markers stroke fill"
       id="ellipse31-5"
       cx="62.974049"
       cy="156.49243"
       rx="2.119705"
       ry="3.3230872"
       transform="matrix(1,0,0.22893978,0.97344059,0,0)" /><ellipse
       style="display:inline;fill:#132833;fill-opacity:1;stroke:none;stroke-width:0.672656;stroke-dasharray:none;stroke-opacity:1;paint-order:markers stroke fill"
       id="ellipse31-5-7"
       cx="70.043205"
       cy="148.11679"
       rx="2.371449"
       ry="3.3076487"
       transform="matrix(1,0,0.2086794,0.9779841,0,0)" /></g></svg>
